HIERARCHY
ROOT Hips
{
	OFFSET -0.001795 -0.223333 0.028219
	CHANNELS 6 Xposition Yposition Zposition Zrotation Yrotation Xrotation 
	JOINT LeftUpLeg
	{
		OFFSET 0.069520 -0.091406 -0.006815
		CHANNELS 3 Zrotation Yrotation Xrotation
		JOINT LeftLeg
		{
			OFFSET 0.034277 -0.375199 -0.004496
			CHANNELS 3 Zrotation Yrotation Xrotation
			JOINT LeftFoot
			{
				OFFSET -0.013596 -0.397961 -0.043693
				CHANNELS 3 Zrotation Yrotation Xrotation
				JOINT LeftToe
				{
					OFFSET 0.026358 -0.055791 0.119288
					CHANNELS 3 Zrotation Yrotation Xrotation
					End Site
					{
						OFFSET 0.000000 0.000000 0.000000
					}
				}
			}
		}
	}
	JOINT RightUpLeg
	{
		OFFSET -0.067670 -0.090522 -0.004320
		CHANNELS 3 Zrotation Yrotation Xrotation
		JOINT RightLeg
		{
			OFFSET -0.038290 -0.382569 -0.008850
			CHANNELS 3 Zrotation Yrotation Xrotation
			JOINT RightFoot
			{
				OFFSET 0.015774 -0.398415 -0.042312
				CHANNELS 3 Zrotation Yrotation Xrotation
				JOINT RightToe
				{
					OFFSET -0.025372 -0.048144 0.123348
					CHANNELS 3 Zrotation Yrotation Xrotation
					End Site
					{
						OFFSET 0.000000 0.000000 0.000000
					}
				}
			}
		}
	}
	JOINT Spine
	{
		OFFSET -0.002533 0.108963 -0.026696
		CHANNELS 3 Zrotation Yrotation Xrotation
		JOINT Spine1
		{
			OFFSET 0.005487 0.135180 0.001092
			CHANNELS 3 Zrotation Yrotation Xrotation
			JOINT Spine2
			{
				OFFSET 0.001457 0.052922 0.025425
				CHANNELS 3 Zrotation Yrotation Xrotation
				JOINT Neck
				{
					OFFSET -0.002778 0.213870 -0.042857
					CHANNELS 3 Zrotation Yrotation Xrotation
					JOINT Head
					{
						OFFSET 0.005152 0.064970 0.051349
						CHANNELS 3 Zrotation Yrotation Xrotation
						End Site
						{
							OFFSET 0.000000 0.000000 0.000000
						}
					}
				}
				JOINT LeftShoulder
				{
					OFFSET 0.078845 0.121749 -0.034090
					CHANNELS 3 Zrotation Yrotation Xrotation
					JOINT LeftArm
					{
						OFFSET 0.090977 0.030469 -0.008868
						CHANNELS 3 Zrotation Yrotation Xrotation
						JOINT LeftForeArm
						{
							OFFSET 0.259612 -0.012772 -0.027456
							CHANNELS 3 Zrotation Yrotation Xrotation
							JOINT LeftHand
							{
								OFFSET 0.249234 0.008986 -0.001171
								CHANNELS 3 Zrotation Yrotation Xrotation
								End Site
								{
									OFFSET 0.000000 0.000000 0.000000
								}
							}
						}
					}
				}
				JOINT RightShoulder
				{
					OFFSET -0.081759 0.118833 -0.038615
					CHANNELS 3 Zrotation Yrotation Xrotation
					JOINT RightArm
					{
						OFFSET -0.096012 0.032551 -0.009143
						CHANNELS 3 Zrotation Yrotation Xrotation
						JOINT RightForeArm
						{
							OFFSET -0.253742 -0.013329 -0.021401
							CHANNELS 3 Zrotation Yrotation Xrotation
							JOINT RightHand
							{
								OFFSET -0.255298 0.007772 -0.005559
								CHANNELS 3 Zrotation Yrotation Xrotation
								End Site
								{
									OFFSET 0.000000 0.000000 0.000000
								}
							}
						}
					}
				}
			}
		}
	}
}
MOTION
Frames: 11
Frame Time: 0.050000
-0.025403 0.931288 -0.031133 -2.676419 -4.065208 -1.156855 11.695574 0.587984 -26.890095 -5.938927 1.778575 32.399153 7.425862 17.294899 35.200793 0.000000 0.000000 0.000000 -3.872858 1.441402 -18.415123 5.401594 -0.383184 28.837352 -13.281265 -27.219564 25.667372 0.000000 0.000000 0.000000 -7.622901 1.522211 36.715524 6.566080 -2.141745 -11.931210 0.769312 4.643493 27.552903 -0.649577 2.176152 -19.511191 0.000000 0.000000 0.000000 -11.806265 -15.997784 6.408508 -53.555785 -41.963563 10.880818 168.622537 -41.986816 -135.801939 0.000000 0.000000 0.000000 -7.178351 24.235428 6.583232 68.884936 44.814215 21.497462 -155.025869 41.999357 -100.379267 0.000000 0.000000 0.000000 
-0.025639 0.932889 -0.030848 -2.891002 -4.215121 -0.816083 11.971430 0.654894 -26.603604 -6.062359 1.824020 31.789159 7.440356 17.235215 34.051717 0.000000 0.000000 0.000000 -3.674104 1.475095 -18.405488 5.261219 -0.326649 28.291589 -12.641828 -26.448674 25.539676 0.000000 0.000000 0.000000 -7.648442 1.543185 36.501945 6.589438 -2.102345 -12.448418 0.699490 4.100652 27.841090 -1.052891 2.339628 -19.450482 0.000000 0.000000 0.000000 -11.265584 -15.454841 6.238275 -53.832617 -41.701273 10.832627 168.320395 -41.792878 -134.293008 0.000000 0.000000 0.000000 -6.546648 23.981702 6.679527 69.794437 44.396221 21.342860 -157.338412 42.828258 -106.277525 0.000000 0.000000 0.000000 
-0.024529 0.934295 -0.030529 -3.022984 -4.242121 -0.434551 12.080908 0.679093 -26.635246 -6.074779 1.813264 31.312480 7.231237 17.000966 33.793224 0.000000 0.000000 0.000000 -3.672560 1.492376 -18.552569 5.328332 -0.355385 27.880353 -12.456667 -26.211386 25.687736 0.000000 0.000000 0.000000 -7.467958 1.472058 36.172213 6.561333 -2.061929 -12.745698 0.716382 3.919964 28.004792 -1.264950 2.442952 -19.370073 0.000000 0.000000 0.000000 -11.946699 -15.004011 6.141975 -53.916162 -40.981722 10.449526 168.959267 -42.358079 -136.063764 0.000000 0.000000 0.000000 -6.533045 23.610298 6.595803 70.307869 44.009992 21.195329 -159.092065 43.005082 -110.004326 0.000000 0.000000 0.000000 
-0.021811 0.933747 -0.030227 -2.822263 -4.488588 -0.295112 11.556245 0.566058 -26.396890 -6.061309 1.848540 31.382458 7.596625 17.242958 31.550854 0.000000 0.000000 0.000000 -3.930958 1.481297 -18.726643 5.220922 -0.285797 28.162076 -12.227974 -26.040628 24.647103 0.000000 0.000000 0.000000 -7.387692 1.463055 35.787390 6.242529 -1.981967 -12.416860 0.866685 4.204325 27.797812 -1.201021 2.401463 -18.814622 0.000000 0.000000 0.000000 -12.315378 -14.646674 5.976499 -54.199202 -40.233948 10.138549 168.900184 -42.072720 -135.813183 0.000000 0.000000 0.000000 -6.885105 23.111456 6.390997 69.427386 44.206349 21.017014 -157.899495 42.922286 -107.554516 0.000000 0.000000 0.000000 
-0.017912 0.930889 -0.030121 -2.591785 -4.789113 -0.542084 11.087499 0.474367 -25.989023 -6.188369 1.947217 31.447760 8.181210 17.781019 30.234263 0.000000 0.000000 0.000000 -4.372668 1.431817 -18.748982 5.075060 -0.183744 28.922649 -11.700077 -25.495214 23.136770 0.000000 0.000000 0.000000 -7.170441 1.430725 35.829254 5.903840 -1.895361 -12.144492 0.766203 4.798638 27.502364 -0.815479 2.208350 -18.616485 0.000000 0.000000 0.000000 -13.020957 -14.704411 5.959540 -54.297338 -39.522572 9.797845 168.684998 -41.847948 -135.544642 0.000000 0.000000 0.000000 -7.048464 23.080287 6.331983 67.469599 44.774107 20.722605 -155.278341 42.095116 -101.217688 0.000000 0.000000 0.000000 
-0.014131 0.928064 -0.030557 -2.299600 -5.158005 -0.846100 10.610003 0.389088 -25.616677 -6.283241 2.041656 31.521712 8.609586 18.174650 29.338948 0.000000 0.000000 0.000000 -4.868186 1.366314 -18.632703 4.969565 -0.090189 29.439991 -11.277031 -25.062357 21.550992 0.000000 0.000000 0.000000 -7.120457 1.486987 36.250944 5.774629 -1.857647 -12.190891 0.762612 5.188093 27.370984 -0.861140 2.263003 -18.243437 0.000000 0.000000 0.000000 -14.212938 -14.707482 5.992255 -54.131494 -38.921988 9.444043 169.365352 -41.682923 -137.234470 0.000000 0.000000 0.000000 -7.522724 23.532336 6.330326 66.541683 45.519913 20.948163 -153.360184 42.033066 -97.608732 0.000000 0.000000 0.000000 
-0.011576 0.926534 -0.031541 -2.164026 -5.619325 -0.859275 10.304847 0.346096 -25.133039 -6.256405 2.063617 30.977992 8.992106 18.513653 28.227143 0.000000 0.000000 0.000000 -5.144957 1.360548 -18.821999 4.898314 -0.009105 29.543033 -11.058577 -24.842161 21.054463 0.000000 0.000000 0.000000 -7.010628 1.526441 36.452864 5.504019 -1.795253 -11.877244 0.669364 5.326816 27.151557 -0.948622 2.308555 -18.126243 0.000000 0.000000 0.000000 -13.716703 -14.643781 5.934920 -55.010816 -39.052620 9.795673 169.445993 -40.543620 -136.239128 0.000000 0.000000 0.000000 -8.068558 23.847495 6.300573 66.124263 46.310103 21.368916 -152.807173 41.903065 -96.628369 0.000000 0.000000 0.000000 
-0.010354 0.926309 -0.032851 -2.182528 -6.130783 -0.775547 10.380028 0.398607 -24.825074 -6.297441 2.104127 30.278404 9.186284 18.660525 28.373310 0.000000 0.000000 0.000000 -5.224334 1.370773 -18.842375 4.843531 0.051192 29.090709 -10.706872 -24.424785 20.794706 0.000000 0.000000 0.000000 -6.772092 1.517308 36.504276 5.246534 -1.714617 -11.855637 0.583375 5.100545 27.169378 -1.377833 2.529227 -18.016906 0.000000 0.000000 0.000000 -13.744669 -14.729627 6.073175 -55.065194 -38.969449 9.787770 169.537790 -40.383824 -135.892171 0.000000 0.000000 0.000000 -8.137406 24.463905 6.459479 65.909003 47.006610 21.631933 -153.362605 42.290460 -98.611778 0.000000 0.000000 0.000000 
-0.010116 0.926522 -0.034420 -2.220997 -6.533495 -0.514188 10.443637 0.448445 -24.960051 -6.174865 2.078563 29.880847 9.251710 18.681463 28.960027 0.000000 0.000000 0.000000 -5.115578 1.434723 -19.256230 4.859220 0.079282 28.858162 -10.918002 -24.757077 21.146678 0.000000 0.000000 0.000000 -7.036804 1.672453 36.590634 5.323789 -1.738809 -11.981099 0.703640 5.248799 27.373746 -1.513500 2.643713 -18.620437 0.000000 0.000000 0.000000 -13.204566 -14.771196 6.068861 -55.335285 -39.338479 10.048687 169.253762 -40.111752 -134.792948 0.000000 0.000000 0.000000 -8.464437 24.598563 6.424482 66.515758 47.512656 22.297134 -154.521869 42.477306 -100.986878 0.000000 0.000000 0.000000 
-0.010349 0.926523 -0.036302 -2.386639 -6.824137 -0.403620 10.418890 0.473257 -25.141891 -5.974184 2.035747 29.954651 9.856047 19.320933 28.967689 0.000000 0.000000 0.000000 -4.874103 1.504692 -19.574332 4.648560 0.177545 28.712495 -10.729467 -24.509822 21.775565 0.000000 0.000000 0.000000 -7.087009 1.739771 36.745155 5.129150 -1.684494 -11.828021 0.722065 5.218027 27.463069 -1.710065 2.760740 -18.848466 0.000000 0.000000 0.000000 -12.036709 -14.809285 6.032140 -55.776936 -39.714471 10.382728 168.204575 -39.652634 -131.510401 0.000000 0.000000 0.000000 -8.932329 24.704477 6.353683 66.697510 48.037305 22.750006 -155.608515 41.917435 -102.286309 0.000000 0.000000 0.000000 
-0.010818 0.925473 -0.038385 -2.317399 -6.936291 -0.546699 10.316187 0.471209 -25.463022 -5.781346 2.001138 30.487283 9.845359 19.294014 29.326779 0.000000 0.000000 0.000000 -4.926650 1.525992 -19.886144 4.609250 0.221350 29.168683 -10.614837 -24.359859 21.905713 0.000000 0.000000 0.000000 -7.194971 1.814474 37.060759 4.936186 -1.617035 -11.868074 0.816182 5.285438 27.814739 -1.878067 2.895068 -19.187749 0.000000 0.000000 0.000000 -11.495161 -15.231132 6.182934 -56.025301 -40.128187 10.653024 168.551194 -39.816116 -132.411906 0.000000 0.000000 0.000000 -9.130140 24.678326 6.284954 67.167151 48.410532 23.259490 -156.404448 41.969871 -103.824057 0.000000 0.000000 0.000000 
